<svg xmlns="http://www.w3.org/2000/svg" width="19" height="20" viewBox="0 0 19 20" fill="none">
<path fill-rule="evenodd" clip-rule="evenodd" d="M9.2466 20C7.8916 20 6.5706 19.985 5.2636 19.958C3.5916 19.925 2.4346 18.841 2.2456 17.129C1.9306 14.289 1.3916 7.595 1.3866 7.528C1.3526 7.115 1.6606 6.753 2.0736 6.72C2.4806 6.709 2.8486 6.995 2.8816 7.407C2.8866 7.475 3.4246 14.146 3.7366 16.964C3.8436 17.937 4.3686 18.439 5.2946 18.458C7.7946 18.511 10.3456 18.514 13.0956 18.464C14.0796 18.445 14.6116 17.953 14.7216 16.957C15.0316 14.163 15.5716 7.475 15.5776 7.407C15.6106 6.995 15.9756 6.707 16.3846 6.72C16.7976 6.754 17.1056 7.115 17.0726 7.528C17.0666 7.596 16.5246 14.307 16.2126 17.122C16.0186 18.869 14.8646 19.932 13.1226 19.964C11.7896 19.987 10.5036 20 9.2466 20Z" fill="#FF3030"/>
<path fill-rule="evenodd" clip-rule="evenodd" d="M17.708 4.9893H0.75C0.336 4.9893 0 4.6533 0 4.2393C0 3.8253 0.336 3.4893 0.75 3.4893H17.708C18.122 3.4893 18.458 3.8253 18.458 4.2393C18.458 4.6533 18.122 4.9893 17.708 4.9893Z" fill="#FF3030"/>
<path fill-rule="evenodd" clip-rule="evenodd" d="M14.4404 4.9893C13.3024 4.9893 12.3144 4.1783 12.0904 3.0623L11.8474 1.8463C11.7964 1.6613 11.5854 1.5003 11.3454 1.5003H7.1124C6.8724 1.5003 6.6614 1.6613 6.60039 1.8923L6.36739 3.0623C6.14439 4.1783 5.1554 4.9893 4.0174 4.9893C3.6034 4.9893 3.2674 4.6533 3.2674 4.2393C3.2674 3.8253 3.6034 3.4893 4.0174 3.4893C4.4434 3.4893 4.8134 3.1853 4.8974 2.7673L5.1404 1.5513C5.3874 0.619298 6.1944 0.000297546 7.1124 0.000297546H11.3454C12.2634 0.000297546 13.0704 0.619298 13.3074 1.5063L13.5614 2.7673C13.6444 3.1853 14.0144 3.4893 14.4404 3.4893C14.8544 3.4893 15.1904 3.8253 15.1904 4.2393C15.1904 4.6533 14.8544 4.9893 14.4404 4.9893Z" fill="#FF3030"/>
</svg>